<svg xmlns="http://www.w3.org/2000/svg" version="1.1"
     width="2000" height="2000" preserveAspectRatio="none" viewBox="0 0 2000 2000">
  <g mask="url(&quot;#SvgjsMask1002&quot;)" fill="none">
    <rect width="2000" height="2000" x="0" y="0" fill="url(&quot;#SvgjsLinearGradient1003&quot;)"></rect>
    <path
      d="M755.74,2300.103C968.806,2300.487,1183.271,2203.492,1278.371,2012.827C1366.244,1836.652,1278.064,1636.336,1168.352,1472.865C1073.442,1331.45,925.957,1239.803,755.74,1234.108C574.167,1228.033,393.338,1292.525,292.363,1443.555C179.15,1612.89,139.442,1831.79,236.364,2010.949C337.415,2197.741,543.366,2299.72,755.74,2300.103"
      fill="rgba(255, 255, 255, 0.42)" class="triangle-float2"></path>
    <path
      d="M1616.469,2271.426C1729.293,2276.869,1852.272,2247.463,1908.076,2149.256C1963.426,2051.848,1920.827,1934.493,1862.16,1839.047C1806.875,1749.102,1722.037,1676.186,1616.469,1674.836C1508.791,1673.459,1411.54,1738.262,1359.647,1832.621C1309.574,1923.669,1317.353,2033.609,1369.84,2123.288C1421.759,2211.996,1513.803,2266.473,1616.469,2271.426"
      fill="rgba(255, 255, 255, 0.42)" class="triangle-float2"></path>
    <path
      d="M1575.424,1824.988C1727.131,1827.108,1894.076,1792.411,1966.314,1658.99C2036.416,1529.516,1955.976,1383.597,1883.929,1255.195C1809.566,1122.665,1727.373,964.71,1575.424,962.35C1421.331,959.957,1323.394,1109.909,1249.864,1245.348C1180.71,1372.727,1132.031,1521.953,1203.009,1648.325C1275.124,1776.722,1428.175,1822.93,1575.424,1824.988"
      fill="rgba(255, 255, 255, 0.42)" class="triangle-float2"></path>
    <path
      d="M371.581,1221.656C426.257,1219.835,471.745,1186.318,501.292,1140.278C533.995,1089.32,558.441,1027.329,530.9,973.406C501.394,915.636,436.437,885.008,371.581,886.316C308.917,887.579,253.357,924.771,223.012,979.613C193.631,1032.713,194.24,1097.729,225.986,1149.449C256.36,1198.933,313.551,1223.589,371.581,1221.656"
      fill="rgba(255, 255, 255, 0.42)" class="triangle-float2"></path>
    <path
      d="M307.301,1284.517C470.42,1284.028,637.591,1221.235,714.077,1077.158C787.06,939.679,729.774,777.929,645.808,646.869C569.574,527.877,448.607,444.108,307.301,442.231C162.707,440.31,31.219,516.134,-47.151,637.663C-133.419,771.44,-180.215,940.013,-103.721,1079.61C-24.873,1223.503,143.222,1285.009,307.301,1284.517"
      fill="rgba(255, 255, 255, 0.42)" class="triangle-float2"></path>
    <path
      d="M702.834,978.541C767.985,975.548,813.868,920.651,844.023,862.821C871.54,810.051,876.192,749.779,849.983,696.348C819.973,635.168,770.953,576.846,702.834,574.987C632.381,573.064,574.977,626.124,541.084,687.918C508.606,747.132,504.387,817.904,537.231,876.916C570.989,937.571,633.491,981.727,702.834,978.541"
      fill="rgba(255, 255, 255, 0.42)" class="triangle-float3"></path>
    <path
      d="M295.611,429.333C348.681,430.119,391.157,391.612,418.809,346.308C447.953,298.56,466.845,240.856,440.902,191.295C413.394,138.744,354.708,105.872,295.611,110.953C242.808,115.493,211.871,165.73,187.984,213.04C167.043,254.515,157.876,301.153,178.575,342.75C201.746,389.315,243.606,428.563,295.611,429.333"
      fill="rgba(255, 255, 255, 0.42)" class="triangle-float1"></path>
  </g>
  <defs>
    <mask id="SvgjsMask1002">
      <rect width="2000" height="2000" fill="#ffffff"></rect>
    </mask>
    <linearGradient x1="0%" y1="0%" x2="100%" y2="100%" gradientUnits="userSpaceOnUse" id="SvgjsLinearGradient1003">
      <stop stop-color="rgba(255, 138, 60, 1)" offset="0"></stop>
      <stop stop-color="rgba(255, 102, 78, 1)" offset="1"></stop>
    </linearGradient>
    <style>
      @keyframes float1 {
        0% {
          transform: translate(0, 0)
        }
        50% {
          transform: translate(-10px, 0)
        }
        100% {
          transform: translate(0, 0)
        }
      }

      .triangle-float1 {
        animation: float1 5s infinite;
      }

      @keyframes float2 {
        0% {
          transform: translate(0, 0)
        }
        50% {
          transform: translate(-5px, -5px)
        }
        100% {
          transform: translate(0, 0)
        }
      }

      .triangle-float2 {
        animation: float2 4s infinite;
      }

      @keyframes float3 {
        0% {
          transform: translate(0, 0)
        }
        50% {
          transform: translate(0, -10px)
        }
        100% {
          transform: translate(0, 0)
        }
      }

      .triangle-float3 {
        animation: float3 6s infinite;
      }
    </style>
  </defs>
</svg>
