<svg xmlns="http://www.w3.org/2000/svg" version="1.1" xmlns:xlink="http://www.w3.org/1999/xlink" xmlns:svgjs="http://svgjs.dev/svgjs" width="1440" height="560" preserveAspectRatio="none" viewBox="0 0 1440 560"><g mask="url(&quot;#SvgjsMask1015&quot;)" fill="none"><rect width="1440" height="560" x="0" y="0" fill="rgba(215, 243, 227, 1)"></rect><path d="M515.97 619.34C631.91 595.31 573.02 308.61 861.22 295.1 1149.42 281.59 1373.02 111.89 1551.71 110.3" stroke="rgba(215, 243, 227, 1)" stroke-width="2"></path><path d="M751.97 648.43C918.63 588.3 949.12 100.36 1189.58 90.99 1430.04 81.62 1511 245.45 1627.19 247.79" stroke="rgba(215, 243, 227, 1)" stroke-width="2"></path><path d="M626.44 602.61C795.57 582.04 892.74 203.27 1177.03 201 1461.32 198.73 1586.87 317.95 1727.62 318.6" stroke="rgba(215, 243, 227, 1)" stroke-width="2"></path><path d="M292.4 670.18C460.02 610.86 482.75 128.96 734.7 113.22 986.65 97.48 955.85 183.22 1177 183.22 1398.15 183.22 1507.35 113.44 1619.3 113.22" stroke="rgba(215, 243, 227, 1)" stroke-width="2"></path><path d="M284.86 642.2C481.25 630.77 629.34 271.21 978.65 270.93 1327.97 270.65 1491.44 475.93 1672.45 478.13" stroke="rgba(215, 243, 227, 1)" stroke-width="2"></path></g><defs><mask id="SvgjsMask1015"><rect width="1440" height="560" fill="#ffffff"></rect></mask></defs></svg>